<?xml version="1.0" encoding="UTF-8" standalone="no"?>
<!-- Generator: Adobe Illustrator 21.0.0, SVG Export Plug-In . SVG Version: 6.00 Build 0)  -->

<svg
   version="1.1"
   id="Layer_1"
   x="0px"
   y="0px"
   viewBox="0 0 340.4 100.7"
   xml:space="preserve"
   sodipodi:docname="crystal.svg"
   width="340.39999"
   height="100.7"
   inkscape:version="1.2 (dc2aedaf03, 2022-05-15)"
   xmlns:inkscape="http://www.inkscape.org/namespaces/inkscape"
   xmlns:sodipodi="http://sodipodi.sourceforge.net/DTD/sodipodi-0.dtd"
   xmlns="http://www.w3.org/2000/svg"
   xmlns:svg="http://www.w3.org/2000/svg"><defs
   id="defs13">
	
	
</defs><sodipodi:namedview
   id="namedview11"
   pagecolor="#ffffff"
   bordercolor="#666666"
   borderopacity="1.0"
   inkscape:showpageshadow="2"
   inkscape:pageopacity="0.0"
   inkscape:pagecheckerboard="0"
   inkscape:deskcolor="#d1d1d1"
   showgrid="false"
   inkscape:zoom="3.8484137"
   inkscape:cx="170.2"
   inkscape:cy="89.77725"
   inkscape:window-width="1866"
   inkscape:window-height="1016"
   inkscape:window-x="54"
   inkscape:window-y="27"
   inkscape:window-maximized="1"
   inkscape:current-layer="Layer_1" />
<style
   type="text/css"
   id="style2">
	.st0{fill:none;}
</style>
<path
   d="m 132.72802,74.599566 0.7096,5.55849 c -3.31144,1.064392 -7.45074,1.537455 -12.53617,1.537455 -6.14982,0 -10.40739,-1.537455 -12.89097,-4.73063 -2.48358,-3.193175 -3.7845,-8.6334 -3.7845,-16.320673 0,-7.687274 1.18265,-13.245764 3.7845,-16.320674 2.48358,-3.193175 6.74115,-4.73063 12.89097,-4.73063 4.4941,0 8.39687,0.473063 11.70831,1.300924 l -0.7096,5.676756 c -3.4297,-0.236532 -7.09594,-0.354798 -10.99871,-0.354798 -3.42971,0 -5.67676,1.064392 -6.97768,3.07491 -1.18266,2.128783 -1.89225,5.913287 -1.89225,11.471777 0,5.558491 0.59133,9.46126 1.89225,11.471778 1.30092,2.128784 3.54797,3.07491 6.97768,3.07491 4.96716,-0.118266 8.9882,-0.354798 11.82657,-0.709595 z m 33.94227,-6.38635 3.66624,12.772701 h -7.9238 l -3.31144,-12.654436 c -0.7096,-2.48358 -2.36532,-3.666238 -4.73063,-3.666238 h -7.33248 V 80.985917 H 139.7057 V 40.184233 c 3.54797,-0.354797 8.51514,-0.473063 14.90149,-0.473063 5.20369,0 8.86993,0.82786 10.99871,2.601847 2.12879,1.773986 3.19318,4.848895 3.19318,9.342994 0,3.193175 -0.59133,5.55849 -1.77399,7.21421 -1.18266,1.655721 -3.19317,2.720113 -5.91329,3.07491 v 0.354797 c 1.18266,0.236532 2.24705,0.946126 3.31144,1.892252 1.18266,0.82786 1.89226,2.247049 2.24705,4.021036 z m -6.74114,-11.116981 c 0.94612,-0.946126 1.41918,-2.601846 1.41918,-5.085427 0,-2.483581 -0.47306,-4.139301 -1.41918,-5.085427 -0.94613,-0.82786 -2.72012,-1.300923 -5.44023,-1.300923 h -7.33248 v 12.890966 h 7.33248 c 2.72011,0 4.4941,-0.473063 5.44023,-1.419189 z M 273.7008,40.184233 h -32.52308 v 6.268085 h 12.4179 v 34.533599 h 7.45074 V 46.452318 h 12.65444 z m 22.94355,1.892252 12.29964,38.791166 h -7.68727 l -3.31144,-11.590044 h -15.13802 l -3.31144,11.590044 h -7.56901 l 12.18137,-38.791166 c 0.3548,-1.300923 1.30093,-2.010518 2.72012,-2.010518 h 7.21421 c 1.30092,0.118266 2.24705,0.709595 2.60184,2.010518 z m -0.47306,21.287835 -4.1393,-14.073624 c -0.59133,-2.128784 -0.82786,-3.311441 -0.94613,-3.429707 h -1.53745 l -0.94613,3.429707 -4.02103,14.073624 z m 42.4574,11.471778 H 324.4368 c -1.30092,0 -2.24705,-0.236532 -2.72011,-0.709595 -0.47306,-0.473063 -0.82786,-1.419189 -0.82786,-2.601846 V 40.184233 h -7.45074 v 32.404815 c 0,5.676756 3.07491,8.515134 9.22473,8.515134 6.97768,0 12.29964,-0.236531 16.2024,-0.473063 z M 191.03304,56.031843 c -0.23653,0.591329 -0.82786,2.24705 -1.65572,4.967162 h -0.47307 c -0.82786,-2.601847 -1.41918,-4.257567 -1.65572,-4.967162 l -7.45074,-15.84761 h -7.80554 l 13.36403,26.964591 v 13.955358 h 7.45074 V 67.148824 l 13.36403,-26.964591 h -7.68727 z m 37.84504,2.365315 -7.80554,-2.48358 c -1.77399,-0.591329 -2.95665,-1.182658 -3.54797,-1.892252 -0.7096,-0.709595 -0.94613,-1.892252 -0.94613,-3.547973 0,-2.010517 0.47306,-3.311441 1.41919,-3.902769 0.94612,-0.473063 2.72011,-0.827861 5.44022,-0.827861 3.54798,0 7.68728,0.118266 12.18138,0.236532 l 0.47306,-5.203693 c -3.54797,-0.946126 -7.80554,-1.419189 -12.7727,-1.419189 -5.2037,0 -8.86993,0.709594 -10.88045,2.128783 -2.12879,1.419189 -3.07491,4.375833 -3.07491,8.869932 0,3.074909 0.59133,5.676755 1.89225,7.569007 1.30092,1.892252 3.31144,3.311441 6.26809,4.257567 l 8.2786,2.601847 c 1.65572,0.473063 2.83838,1.064392 3.4297,1.773986 0.59133,0.709595 0.94613,1.892252 0.94613,3.666238 0,2.010518 -0.47306,3.429707 -1.30092,4.021036 -0.94613,0.591329 -2.72011,0.946126 -5.44023,0.946126 -1.77398,0 -6.03155,-0.118266 -12.89096,-0.236532 l -0.47307,5.440225 c 4.37584,0.82786 8.75167,1.300923 13.24577,1.300923 5.44022,0 9.22473,-0.82786 11.23524,-2.365315 2.12879,-1.537455 3.19318,-4.612364 3.19318,-9.106463 0,-3.074909 -0.59133,-5.676756 -1.89225,-7.569008 -1.65572,-1.892252 -3.78451,-3.311441 -6.97768,-4.257567 z M 82.938142,61.708599 72.175959,21.498245 c 0,-0.118266 -0.118266,-0.236532 -0.354797,-0.354798 L 31.492541,10.381264 c -0.118265,0 -0.354797,0 -0.473063,0.118266 L 1.4530408,39.947702 C 1.3347751,40.065967 1.3347751,40.184233 1.3347751,40.420765 L 12.096958,80.631119 c 0,0.118266 0.118266,0.236532 0.354798,0.354798 l 40.32862,10.762185 c 0.118266,0 0.354797,0 0.473063,-0.11827 l 29.566438,-29.44817 c 0.118265,-0.236531 0.236531,-0.354797 0.118265,-0.473063 z M 43.437382,30.131644 32.793465,69.632405 c 0,0.118265 -0.118266,0.118265 -0.236532,0 L 3.7000901,40.775562 c -0.1182658,-0.118266 0,-0.118266 0,-0.236532 L 43.319116,29.895113 c 0,0.118266 0.118266,0.118266 0.118266,0.236531 z"
   id="path4"
   style="stroke-width:1.18266" /><rect
   class="st0"
   width="340.39999"
   height="137.7"
   id="rect6"
   x="0"
   y="0" />
</svg>
