<?xml version="1.0" encoding="UTF-8" standalone="no"?>
<svg
   viewBox="0 0 100 100"
   version="1.1"
   id="svg23"
   sodipodi:docname="kotlin.svg"
   width="100"
   height="100"
   inkscape:version="1.1.2 (0a00cf5339, 2022-02-04)"
   xmlns:inkscape="http://www.inkscape.org/namespaces/inkscape"
   xmlns:sodipodi="http://sodipodi.sourceforge.net/DTD/sodipodi-0.dtd"
   xmlns="http://www.w3.org/2000/svg"
   xmlns:svg="http://www.w3.org/2000/svg">
  <defs
     id="defs27" />
  <sodipodi:namedview
     id="namedview25"
     pagecolor="#ffffff"
     bordercolor="#666666"
     borderopacity="1.0"
     inkscape:pageshadow="2"
     inkscape:pageopacity="0.0"
     inkscape:pagecheckerboard="0"
     showgrid="false"
     inkscape:zoom="6.69"
     inkscape:cx="39.835575"
     inkscape:cy="40.732436"
     inkscape:window-width="1866"
     inkscape:window-height="1016"
     inkscape:window-x="54"
     inkscape:window-y="27"
     inkscape:window-maximized="1"
     inkscape:current-layer="svg23" />
  <radialGradient
     id="a"
     cx="22.431999"
     cy="3.493"
     r="21.679001"
     gradientTransform="matrix(1.0856,0,0,1.0856,-4.4842,-2.1259)"
     gradientUnits="userSpaceOnUse">
    <stop
       stop-color="#e44857"
       offset=".003"
       id="stop2" />
    <stop
       stop-color="#c711e1"
       offset=".469"
       id="stop4" />
    <stop
       stop-color="#7f52ff"
       offset="1"
       id="stop6" />
  </radialGradient>
  <g
     id="g851"
     transform="translate(1.3863044e-4,39.14735)">
    <path
       d="m 94.516,5.9825 c -1.1726,0 -2.2045,0.28197 -3.084,0.85743 -0.70575,0.45602 -1.2697,1.0642 -1.7149,1.8242 l -0.02148,-2.3223 h -3.0957 v 15.025 h 3.2246 v -8.4024 c 0,-0.81433 0.15193,-1.5324 0.4668,-2.1621 0.30402,-0.62975 0.7401,-1.1174 1.3047,-1.4649 0.5646,-0.34745 1.2146,-0.52149 1.9746,-0.52149 0.67318,0 1.2606,0.14153 1.7383,0.42383 0.4886,0.2823 0.84598,0.69368 1.0957,1.2149 0.24973,0.53203 0.36914,1.1632 0.36914,1.8906 v 9.0215 h 3.2246 v -9.4786 c 0.02172,-1.1618 -0.21695,-2.182 -0.66211,-3.0723 a 5.0966,5.0966 0 0 0 -1.9219,-2.084 c -0.82518,-0.49945 -1.791,-0.75 -2.8985,-0.75 z"
       id="path9" />
    <path
       d="m 79.706,0.033203 v 3.3106 h 3.2578 v -3.3106 z m 0,6.3086 v 15.025 h 3.2246 v -15.025 z"
       id="path11" />
    <path
       d="M 72.844,-1.7152e-8 V 21.367 h 3.2246 V -1.7152001e-8 Z"
       id="path13" />
    <path
       d="m 63.659,2.584 v 2.5508 c 0,0.40173 -0.09753,0.70691 -0.29297,0.90235 -0.19544,0.19544 -0.49952,0.30469 -0.91211,0.30469 h -1.5527 v 2.7031 h 2.7031 v 8.0879 c 0,0.83604 0.17318,1.586 0.50977,2.2266 0.33659,0.6406 0.82534,1.1389 1.4551,1.4863 0.62975,0.34745 1.3805,0.53321 2.2383,0.53321 h 2.4199 v -2.8125 h -1.8242 c -0.46688,0 -0.84638,-0.16255 -1.1504,-0.48828 -0.29316,-0.32573 -0.4336,-0.75986 -0.4336,-1.3027 v -7.7207 h 3.4961 v -2.7129 h -3.4961 v -3.7578 z"
       id="path15" />
    <path
       d="m 52.496,5.9825 c -1.4984,0 -2.8341,0.3366 -4.0176,1.0098 a 7.1986,7.1986 0 0 0 -2.7676,2.791 c -0.66232,1.1943 -0.98829,2.5514 -0.98829,4.0606 0,1.5201 0.32597,2.8662 0.98829,4.0606 a 7.0032,7.0032 0 0 0 2.7461,2.791 c 1.1835,0.67318 2.5192,1.0098 4.0176,1.0098 1.4766,0 2.802,-0.3366 3.9746,-1.0098 a 7.0901,7.0901 0 0 0 2.7246,-2.791 c 0.65146,-1.1943 0.97657,-2.5514 0.97657,-4.0606 0,-1.5201 -0.32511,-2.8662 -0.97657,-4.0606 C 58.52224,8.589 57.6217,7.6654 56.4491,6.9923 55.2873,6.31912 53.9726,5.9825 52.496,5.9825 Z M 52.47452,8.881 c 0.83604,0 1.5857,0.20741 2.2481,0.63086 0.65146,0.42345 1.1612,1.0097 1.5195,1.7481 0.3583,0.74918 0.5332,1.6057 0.5332,2.5938 0.01086,0.97719 -0.16404,1.8348 -0.5332,2.584 -0.3583,0.74918 -0.86808,1.3355 -1.5195,1.7481 -0.65146,0.42345 -1.4109,0.63086 -2.2578,0.63086 -0.85776,0 -1.6179,-0.20741 -2.291,-0.63086 -0.66232,-0.42345 -1.1836,-1.0097 -1.5527,-1.7481 -0.36916,-0.74918 -0.55469,-1.6068 -0.55469,-2.584 0,-0.97719 0.18553,-1.8446 0.55469,-2.5938 0.36916,-0.74918 0.89042,-1.3355 1.5527,-1.7481 0.66232,-0.42345 1.4322,-0.63086 2.3008,-0.63086 z"
       id="path17" />
    <path
       d="m 41.248,0.79297 -8.8809,9.4786 v -9.4473 h -3.2793 v 20.543 h 3.2793 v -9.9551 l 8.9141,9.9551 h 4.2227 l -9.5001,-10.629 9.3262,-9.9454 z"
       id="path19" />
    <path
       d="M 20.554,21.368 H 0 V 0.825 H 20.554 L 10.065,10.944 Z"
       fill="url(#a)"
       stroke-width="1.0858"
       id="path21"
       style="fill:url(#a)" />
  </g>
</svg>
