<?xml version="1.0" encoding="UTF-8" standalone="no"?>
<svg
   id="Layer_1"
   data-name="Layer 1"
   viewBox="0 0 590 590"
   version="1.1"
   sodipodi:docname="scala.svg"
   width="590"
   height="590"
   inkscape:version="1.1.2 (0a00cf5339, 2022-02-04)"
   xmlns:inkscape="http://www.inkscape.org/namespaces/inkscape"
   xmlns:sodipodi="http://sodipodi.sourceforge.net/DTD/sodipodi-0.dtd"
   xmlns="http://www.w3.org/2000/svg"
   xmlns:svg="http://www.w3.org/2000/svg"
   xmlns:rdf="http://www.w3.org/1999/02/22-rdf-syntax-ns#"
   xmlns:cc="http://creativecommons.org/ns#"
   xmlns:dc="http://purl.org/dc/elements/1.1/">
  <defs
     id="defs29" />
  <sodipodi:namedview
     id="namedview27"
     pagecolor="#ffffff"
     bordercolor="#666666"
     borderopacity="1.0"
     inkscape:pageshadow="2"
     inkscape:pageopacity="0.0"
     inkscape:pagecheckerboard="0"
     showgrid="false"
     inkscape:zoom="0.80178718"
     inkscape:cx="217.6388"
     inkscape:cy="235.09979"
     inkscape:window-width="1866"
     inkscape:window-height="1016"
     inkscape:window-x="54"
     inkscape:window-y="27"
     inkscape:window-maximized="1"
     inkscape:current-layer="Layer_1" />
  <title
     id="title2">scala-full-color</title>
  <g
     id="g859"
     transform="translate(-4.0411354,173.045)">
    <path
       d="m 200.7,142.39 c 6,11.79 15.6,17.6 29.05,17.6 14.44,0 19.59,-7.64 19.59,-15.11 0,-5.15 -1.83,-8.63 -6.64,-11.79 -4.82,-3.32 -8.3,-4.81 -16.93,-8 -10.63,-4 -16.77,-7 -23.41,-12.29 -6.64,-5.48 -9.79,-13 -9.79,-22.74 a 28.28,28.28 0 0 1 10.29,-22.58 c 7,-5.81 15.44,-8.63 25.56,-8.63 15.77,0 27.72,6.31 35.69,18.76 l -14.77,10.17 c -4.48,-6.81 -11.29,-10.3 -20.59,-10.3 -9.13,0 -15.77,5.15 -15.77,12.29 0,4.81 2,7.14 4.82,10 1.82,1.33 6.47,3.32 8.63,4.48 l 6,2.32 6.8,2.66 c 11,4.48 18.76,9.3 23.57,14.44 4.81,5.14 7.31,12.12 7.31,20.75 0,20.42 -14.11,34.2 -40.51,34.2 -21.41,0 -37.18,-10 -44.48,-26.4 z"
       style="fill:#380d09"
       id="path4" />
    <path
       d="M 354.25,104.71 342,117.49 a 28.14,28.14 0 0 0 -21.24,-9.13 25,25 0 0 0 -18.43,7.47 27.76,27.76 0 0 0 0,37.52 25,25 0 0 0 18.43,7.47 28.14,28.14 0 0 0 21.24,-9.13 l 12.29,12.78 c -9,9.63 -20.09,14.44 -33.53,14.44 -12.79,0 -23.58,-4.15 -32.37,-12.62 -8.79,-8.47 -13.12,-19.09 -13.12,-31.7 0,-12.61 4.32,-23.08 13.12,-31.54 8.8,-8.46 19.58,-12.78 32.37,-12.78 13.4,0 24.52,4.81 33.49,14.44 z"
       style="fill:#380d09"
       id="path6" />
    <path
       d="M 393.88,125.62 C 408,124.3 413,122.47 413,116 c 0,-5.15 -4.64,-9.13 -13.94,-9.13 q -13.44,0 -22.41,10.95 l -12.28,-10.46 c 8.13,-11.45 19.58,-17.09 34.36,-17.09 20.75,0 33.7,10 33.7,27.05 v 37 c 0,5.81 2.15,6.48 7,6.48 h 0.5 v 15.43 c -2,1.17 -5.15,1.83 -9.3,1.83 -4.48,0 -8,-1.33 -10.62,-4 a 14.06,14.06 0 0 1 -3,-5.48 c -5.81,6.8 -15.27,10.29 -28.39,10.29 -18.42,0 -30.87,-10.13 -30.87,-25.4 -0.05,-17.06 11.4,-25.69 36.13,-27.85 z M 391.56,162 c 13.28,0 21.41,-6 21.41,-16.6 v -9.3 a 9.75,9.75 0 0 1 -4.14,2.49 c -3.82,1.33 -6.31,1.66 -14.28,2.49 -11.62,1.33 -17.43,5 -17.43,10.79 0,6.46 5.31,10.13 14.44,10.13 z"
       style="fill:#380d09"
       id="path8" />
    <path
       d="m 444.84,60.88 h 19.92 v 88.32 c 0,8.13 2.66,11.62 10,11.62 a 21.15,21.15 0 0 0 6,-0.67 v 17.76 a 35.56,35.56 0 0 1 -9.47,1 c -17.59,0 -26.39,-9 -26.39,-27.06 z"
       style="fill:#380d09"
       id="path10" />
    <path
       d="m 521.71,125.62 c 14.11,-1.32 19.09,-3.15 19.09,-9.62 0,-5.15 -4.64,-9.13 -13.94,-9.13 q -13.44,0 -22.41,10.95 l -12.28,-10.46 c 8.13,-11.45 19.58,-17.09 34.36,-17.09 20.75,0 33.7,10 33.7,27.05 v 37 c 0,5.81 2.15,6.48 7,6.48 h 0.5 v 15.43 c -2,1.17 -5.15,1.83 -9.3,1.83 -4.48,0 -8,-1.33 -10.62,-4 a 13.94,13.94 0 0 1 -3,-5.48 c -5.81,6.8 -15.27,10.29 -28.39,10.29 -18.42,0 -30.87,-10.13 -30.87,-25.4 -0.02,-17.06 11.45,-25.69 36.16,-27.85 z M 519.39,162 c 13.28,0 21.41,-6 21.41,-16.6 v -9.3 a 9.73,9.73 0 0 1 -4.15,2.49 c -3.81,1.33 -6.3,1.66 -14.27,2.49 -11.62,1.33 -17.43,5 -17.43,10.79 0.05,6.46 5.31,10.13 14.44,10.13 z"
       style="fill:#380d09"
       id="path12" />
    <path
       d="m 30.55,94.83 c 1.85,2.55 17.45,7.36 40.72,12.37 23.27,4.46 47.47,22.07 66.29,16.64 12.73,-3.68 26.54,-36.47 26.54,-41.34 V 82 c 0,-3.4 -2.55,-6.13 -6.88,-8.4 C 139.47,64.53 136.11,61.19 129.53,63 95.37,72.43 35.06,67.61 30.55,94.83 Z"
       style="fill:#380d09;fill-rule:evenodd"
       id="path14" />
    <path
       d="m 30.55,161.41 c 1.85,2.59 17.45,7.36 40.72,12.38 26,4.74 48.61,20.19 67.44,14.75 12.73,-3.68 25.39,-34.58 25.39,-39.46 v -0.48 c 0,-3.39 -2.55,-6.13 -6.88,-8.39 -13.54,-7.2 -31.43,-15.13 -38,-13.32 C 85,136.3 39.26,138.37 30.55,161.41 Z"
       style="fill:#380d09;fill-rule:evenodd"
       id="path16" />
    <path
       d="m 30.36,109.14 v 0.48 0 a 3.73,3.73 0 0 1 0,-0.48 z"
       style="fill:#555555;fill-rule:evenodd"
       id="path18" />
    <path
       d="M 138.66,28.78 C 107.2,37.87 57.29,43 30.4,43 v 0 51.35 a 0.8,0.8 0 0 0 0.19,0.48 c 18.35,0 75,-6 109.18,-15.4 a 129,129 0 0 0 17.49,-5.81 c 4.18,-1.88 6.88,-3.86 6.88,-5.92 V 15.91 c -0.04,4.88 -12.75,9.2 -25.48,12.87 z"
       style="fill:#de3423;fill-rule:evenodd"
       id="path20" />
    <path
       d="m 138.66,95.37 c -18.83,5.43 -44.24,9.47 -67.39,11.83 -15.54,1.59 -30.06,2.42 -40.87,2.42 v 0 51.31 a 0.8,0.8 0 0 0 0.19,0.48 c 18.35,0 75,-6 109.18,-15.39 a 130.38,130.38 0 0 0 17.49,-5.81 c 4.18,-1.89 6.88,-3.86 6.88,-5.92 V 82.5 c -0.04,4.87 -12.75,9.19 -25.48,12.87 z"
       style="fill:#de3423;fill-rule:evenodd"
       id="path22" />
    <path
       d="m 138.66,162 c -18.83,5.43 -44.24,9.46 -67.39,11.83 -15.56,1.59 -30.1,2.42 -40.91,2.42 V 228 c 18.16,0 75.1,-5.95 109.37,-15.39 12.63,-3.48 24.37,-7.44 24.37,-11.74 v -51.79 c 0,4.92 -12.71,9.2 -25.44,12.92 z"
       style="fill:#de3423;fill-rule:evenodd"
       id="path24" />
  </g>
  <metadata
     id="metadata846">
    <rdf:RDF>
      <cc:Work
         rdf:about="">
        <dc:title>scala-full-color</dc:title>
      </cc:Work>
    </rdf:RDF>
  </metadata>
</svg>
